# xmcd CD database file
#
# Track frame offsets:
#	150
#	21900
#	36137
#	54166
#	65000
#	75363
#	88020
#	105277
#	122962
#	138155
#	155945
#	168700
#	182069
#	197684
#	213169
#	230091
#	249007
#	268210
#	282111
#	299290
#	317669
#	331955
#
# Disc length: 4636 seconds
#
# Revision: 0
# Processed by: cddbd v1.5.2PL0 Copyright (c) Steve Scherf et al.
# Submitted via: CDex 1.77
#
DISCID=3a121a16
DTITLE=Miranda Lambert - Revolution (2011 Limited Edition)
DYEAR=2011
DGENRE=Country
TTITLE0=White Liar
TTITLE1=Only Prettier
TTITLE2=Dead Flowers
TTITLE3=Me And Your Cigarettes
TTITLE4=Maintain The Pain
TTITLE5=Airstream Song
TTITLE6=Makin' Plans
TTITLE7=Time To Get A Gun
TTITLE8=Somewhere Trouble Don't Go
TTITLE9=The House That Built Me
TTITLE10=Love Song
TTITLE11=Heart Like A Mine
TTITLE12=Sin For A Sin
TTITLE13=That's The Way That The World Goes Around
TTITLE14=Virginia Bluebell
TTITLE15=Me And Charlie Talking
TTITLE16=Bring Me Down
TTITLE17=Kerosene
TTITLE18=New Strings
TTITLE19=Famous In A Small Town
TTITLE20=Gunpowder and Lead
TTITLE21=More Like Her
EXTD=YEAR: 2011
EXTT0=
EXTT1=
EXTT2=
EXTT3=
EXTT4=
EXTT5=
EXTT6=
EXTT7=
EXTT8=
EXTT9=
EXTT10=
EXTT11=
EXTT12=
EXTT13=
EXTT14=
EXTT15=
EXTT16=
EXTT17=
EXTT18=
EXTT19=
EXTT20=
EXTT21=
PLAYORDER=
